# ShoulderBone_acromion - acromion plate above humeral head
# Prototype for SkinFlaps shoulder simulation
v -3.000000 4.500000 -3.000000
v -2.250000 4.500000 -3.000000
v -1.500000 4.500000 -3.000000
v -0.750000 4.500000 -3.000000
v 0.000000 4.500000 -3.000000
v 0.750000 4.500000 -3.000000
v 1.500000 4.500000 -3.000000
v 2.250000 4.500000 -3.000000
v 3.000000 4.500000 -3.000000
v -3.000000 5.055556 -2.333333
v -2.250000 5.055556 -2.333333
v -1.500000 5.055556 -2.333333
v -0.750000 5.055556 -2.333333
v 0.000000 5.055556 -2.333333
v 0.750000 5.055556 -2.333333
v 1.500000 5.055556 -2.333333
v 2.250000 5.055556 -2.333333
v 3.000000 5.055556 -2.333333
v -3.000000 5.388889 -1.666667
v -2.250000 5.388889 -1.666667
v -1.500000 5.388889 -1.666667
v -0.750000 5.388889 -1.666667
v 0.000000 5.388889 -1.666667
v 0.750000 5.388889 -1.666667
v 1.500000 5.388889 -1.666667
v 2.250000 5.388889 -1.666667
v 3.000000 5.388889 -1.666667
v -3.000000 5.500000 -1.000000
v -2.250000 5.500000 -1.000000
v -1.500000 5.500000 -1.000000
v -0.750000 5.500000 -1.000000
v 0.000000 5.500000 -1.000000
v 0.750000 5.500000 -1.000000
v 1.500000 5.500000 -1.000000
v 2.250000 5.500000 -1.000000
v 3.000000 5.500000 -1.000000
v -3.000000 5.388889 -0.333333
v -2.250000 5.388889 -0.333333
v -1.500000 5.388889 -0.333333
v -0.750000 5.388889 -0.333333
v 0.000000 5.388889 -0.333333
v 0.750000 5.388889 -0.333333
v 1.500000 5.388889 -0.333333
v 2.250000 5.388889 -0.333333
v 3.000000 5.388889 -0.333333
v -3.000000 5.055556 0.333333
v -2.250000 5.055556 0.333333
v -1.500000 5.055556 0.333333
v -0.750000 5.055556 0.333333
v 0.000000 5.055556 0.333333
v 0.750000 5.055556 0.333333
v 1.500000 5.055556 0.333333
v 2.250000 5.055556 0.333333
v 3.000000 5.055556 0.333333
v -3.000000 4.500000 1.000000
v -2.250000 4.500000 1.000000
v -1.500000 4.500000 1.000000
v -0.750000 4.500000 1.000000
v 0.000000 4.500000 1.000000
v 0.750000 4.500000 1.000000
v 1.500000 4.500000 1.000000
v 2.250000 4.500000 1.000000
v 3.000000 4.500000 1.000000
f 1 10 2
f 2 10 11
f 2 11 3
f 3 11 12
f 3 12 4
f 4 12 13
f 4 13 5
f 5 13 14
f 5 14 6
f 6 14 15
f 6 15 7
f 7 15 16
f 7 16 8
f 8 16 17
f 8 17 9
f 9 17 18
f 10 19 11
f 11 19 20
f 11 20 12
f 12 20 21
f 12 21 13
f 13 21 22
f 13 22 14
f 14 22 23
f 14 23 15
f 15 23 24
f 15 24 16
f 16 24 25
f 16 25 17
f 17 25 26
f 17 26 18
f 18 26 27
f 19 28 20
f 20 28 29
f 20 29 21
f 21 29 30
f 21 30 22
f 22 30 31
f 22 31 23
f 23 31 32
f 23 32 24
f 24 32 33
f 24 33 25
f 25 33 34
f 25 34 26
f 26 34 35
f 26 35 27
f 27 35 36
f 28 37 29
f 29 37 38
f 29 38 30
f 30 38 39
f 30 39 31
f 31 39 40
f 31 40 32
f 32 40 41
f 32 41 33
f 33 41 42
f 33 42 34
f 34 42 43
f 34 43 35
f 35 43 44
f 35 44 36
f 36 44 45
f 37 46 38
f 38 46 47
f 38 47 39
f 39 47 48
f 39 48 40
f 40 48 49
f 40 49 41
f 41 49 50
f 41 50 42
f 42 50 51
f 42 51 43
f 43 51 52
f 43 52 44
f 44 52 53
f 44 53 45
f 45 53 54
f 46 55 47
f 47 55 56
f 47 56 48
f 48 56 57
f 48 57 49
f 49 57 58
f 49 58 50
f 50 58 59
f 50 59 51
f 51 59 60
f 51 60 52
f 52 60 61
f 52 61 53
f 53 61 62
f 53 62 54
f 54 62 63
