# ShoulderTendon_supraspinatus - tendon tube (closed manifold)
# Prototype for SkinFlaps shoulder simulation
v -2.600000 3.500000 0.000000
v -2.554328 3.729610 0.000000
v -2.554328 3.685758 0.134961
v -2.554328 3.570953 0.218372
v -2.554328 3.429047 0.218372
v -2.554328 3.314242 0.134961
v -2.554328 3.270390 0.000000
v -2.554328 3.314242 -0.134961
v -2.554328 3.429047 -0.218372
v -2.554328 3.570953 -0.218372
v -2.554328 3.685758 -0.134961
v -2.424264 3.924264 0.000000
v -2.424264 3.843237 0.249376
v -2.424264 3.631105 0.403499
v -2.424264 3.368895 0.403499
v -2.424264 3.156763 0.249376
v -2.424264 3.075736 0.000000
v -2.424264 3.156763 -0.249376
v -2.424264 3.368895 -0.403499
v -2.424264 3.631105 -0.403499
v -2.424264 3.843237 -0.249376
v -2.229610 4.054328 0.000000
v -2.229610 3.948461 0.325826
v -2.229610 3.671297 0.527197
v -2.229610 3.328703 0.527197
v -2.229610 3.051539 0.325826
v -2.229610 2.945672 0.000000
v -2.229610 3.051539 -0.325826
v -2.229610 3.328703 -0.527197
v -2.229610 3.671297 -0.527197
v -2.229610 3.948461 -0.325826
v -2.000000 4.100000 0.000000
v -2.000000 3.985410 0.352671
v -2.000000 3.685410 0.570634
v -2.000000 3.314590 0.570634
v -2.000000 3.014590 0.352671
v -2.000000 2.900000 0.000000
v -2.000000 3.014590 -0.352671
v -2.000000 3.314590 -0.570634
v -2.000000 3.685410 -0.570634
v -2.000000 3.985410 -0.352671
v -1.500000 4.100000 0.000000
v -1.500000 3.985410 0.352671
v -1.500000 3.685410 0.570634
v -1.500000 3.314590 0.570634
v -1.500000 3.014590 0.352671
v -1.500000 2.900000 0.000000
v -1.500000 3.014590 -0.352671
v -1.500000 3.314590 -0.570634
v -1.500000 3.685410 -0.570634
v -1.500000 3.985410 -0.352671
v -1.000000 4.100000 0.000000
v -1.000000 3.985410 0.352671
v -1.000000 3.685410 0.570634
v -1.000000 3.314590 0.570634
v -1.000000 3.014590 0.352671
v -1.000000 2.900000 0.000000
v -1.000000 3.014590 -0.352671
v -1.000000 3.314590 -0.570634
v -1.000000 3.685410 -0.570634
v -1.000000 3.985410 -0.352671
v -0.500000 4.100000 0.000000
v -0.500000 3.985410 0.352671
v -0.500000 3.685410 0.570634
v -0.500000 3.314590 0.570634
v -0.500000 3.014590 0.352671
v -0.500000 2.900000 0.000000
v -0.500000 3.014590 -0.352671
v -0.500000 3.314590 -0.570634
v -0.500000 3.685410 -0.570634
v -0.500000 3.985410 -0.352671
v 0.000000 4.100000 0.000000
v 0.000000 3.985410 0.352671
v 0.000000 3.685410 0.570634
v 0.000000 3.314590 0.570634
v 0.000000 3.014590 0.352671
v 0.000000 2.900000 0.000000
v 0.000000 3.014590 -0.352671
v 0.000000 3.314590 -0.570634
v 0.000000 3.685410 -0.570634
v 0.000000 3.985410 -0.352671
v 0.500000 4.100000 0.000000
v 0.500000 3.985410 0.352671
v 0.500000 3.685410 0.570634
v 0.500000 3.314590 0.570634
v 0.500000 3.014590 0.352671
v 0.500000 2.900000 0.000000
v 0.500000 3.014590 -0.352671
v 0.500000 3.314590 -0.570634
v 0.500000 3.685410 -0.570634
v 0.500000 3.985410 -0.352671
v 1.000000 4.100000 0.000000
v 1.000000 3.985410 0.352671
v 1.000000 3.685410 0.570634
v 1.000000 3.314590 0.570634
v 1.000000 3.014590 0.352671
v 1.000000 2.900000 0.000000
v 1.000000 3.014590 -0.352671
v 1.000000 3.314590 -0.570634
v 1.000000 3.685410 -0.570634
v 1.000000 3.985410 -0.352671
v 1.500000 4.100000 0.000000
v 1.500000 3.985410 0.352671
v 1.500000 3.685410 0.570634
v 1.500000 3.314590 0.570634
v 1.500000 3.014590 0.352671
v 1.500000 2.900000 0.000000
v 1.500000 3.014590 -0.352671
v 1.500000 3.314590 -0.570634
v 1.500000 3.685410 -0.570634
v 1.500000 3.985410 -0.352671
v 2.000000 4.100000 0.000000
v 2.000000 3.985410 0.352671
v 2.000000 3.685410 0.570634
v 2.000000 3.314590 0.570634
v 2.000000 3.014590 0.352671
v 2.000000 2.900000 0.000000
v 2.000000 3.014590 -0.352671
v 2.000000 3.314590 -0.570634
v 2.000000 3.685410 -0.570634
v 2.000000 3.985410 -0.352671
v 2.229610 4.054328 0.000000
v 2.229610 3.948461 0.325826
v 2.229610 3.671297 0.527197
v 2.229610 3.328703 0.527197
v 2.229610 3.051539 0.325826
v 2.229610 2.945672 0.000000
v 2.229610 3.051539 -0.325826
v 2.229610 3.328703 -0.527197
v 2.229610 3.671297 -0.527197
v 2.229610 3.948461 -0.325826
v 2.424264 3.924264 0.000000
v 2.424264 3.843237 0.249376
v 2.424264 3.631105 0.403499
v 2.424264 3.368895 0.403499
v 2.424264 3.156763 0.249376
v 2.424264 3.075736 0.000000
v 2.424264 3.156763 -0.249376
v 2.424264 3.368895 -0.403499
v 2.424264 3.631105 -0.403499
v 2.424264 3.843237 -0.249376
v 2.554328 3.729610 0.000000
v 2.554328 3.685758 0.134961
v 2.554328 3.570953 0.218372
v 2.554328 3.429047 0.218372
v 2.554328 3.314242 0.134961
v 2.554328 3.270390 0.000000
v 2.554328 3.314242 -0.134961
v 2.554328 3.429047 -0.218372
v 2.554328 3.570953 -0.218372
v 2.554328 3.685758 -0.134961
v 2.600000 3.500000 0.000000
f 1 2 3
f 1 3 4
f 1 4 5
f 1 5 6
f 1 6 7
f 1 7 8
f 1 8 9
f 1 9 10
f 1 10 11
f 1 11 2
f 2 3 12
f 3 13 12
f 3 4 13
f 4 14 13
f 4 5 14
f 5 15 14
f 5 6 15
f 6 16 15
f 6 7 16
f 7 17 16
f 7 8 17
f 8 18 17
f 8 9 18
f 9 19 18
f 9 10 19
f 10 20 19
f 10 11 20
f 11 21 20
f 11 2 21
f 2 12 21
f 12 13 22
f 13 23 22
f 13 14 23
f 14 24 23
f 14 15 24
f 15 25 24
f 15 16 25
f 16 26 25
f 16 17 26
f 17 27 26
f 17 18 27
f 18 28 27
f 18 19 28
f 19 29 28
f 19 20 29
f 20 30 29
f 20 21 30
f 21 31 30
f 21 12 31
f 12 22 31
f 22 23 32
f 23 33 32
f 23 24 33
f 24 34 33
f 24 25 34
f 25 35 34
f 25 26 35
f 26 36 35
f 26 27 36
f 27 37 36
f 27 28 37
f 28 38 37
f 28 29 38
f 29 39 38
f 29 30 39
f 30 40 39
f 30 31 40
f 31 41 40
f 31 22 41
f 22 32 41
f 32 33 42
f 33 43 42
f 33 34 43
f 34 44 43
f 34 35 44
f 35 45 44
f 35 36 45
f 36 46 45
f 36 37 46
f 37 47 46
f 37 38 47
f 38 48 47
f 38 39 48
f 39 49 48
f 39 40 49
f 40 50 49
f 40 41 50
f 41 51 50
f 41 32 51
f 32 42 51
f 42 43 52
f 43 53 52
f 43 44 53
f 44 54 53
f 44 45 54
f 45 55 54
f 45 46 55
f 46 56 55
f 46 47 56
f 47 57 56
f 47 48 57
f 48 58 57
f 48 49 58
f 49 59 58
f 49 50 59
f 50 60 59
f 50 51 60
f 51 61 60
f 51 42 61
f 42 52 61
f 52 53 62
f 53 63 62
f 53 54 63
f 54 64 63
f 54 55 64
f 55 65 64
f 55 56 65
f 56 66 65
f 56 57 66
f 57 67 66
f 57 58 67
f 58 68 67
f 58 59 68
f 59 69 68
f 59 60 69
f 60 70 69
f 60 61 70
f 61 71 70
f 61 52 71
f 52 62 71
f 62 63 72
f 63 73 72
f 63 64 73
f 64 74 73
f 64 65 74
f 65 75 74
f 65 66 75
f 66 76 75
f 66 67 76
f 67 77 76
f 67 68 77
f 68 78 77
f 68 69 78
f 69 79 78
f 69 70 79
f 70 80 79
f 70 71 80
f 71 81 80
f 71 62 81
f 62 72 81
f 72 73 82
f 73 83 82
f 73 74 83
f 74 84 83
f 74 75 84
f 75 85 84
f 75 76 85
f 76 86 85
f 76 77 86
f 77 87 86
f 77 78 87
f 78 88 87
f 78 79 88
f 79 89 88
f 79 80 89
f 80 90 89
f 80 81 90
f 81 91 90
f 81 72 91
f 72 82 91
f 82 83 92
f 83 93 92
f 83 84 93
f 84 94 93
f 84 85 94
f 85 95 94
f 85 86 95
f 86 96 95
f 86 87 96
f 87 97 96
f 87 88 97
f 88 98 97
f 88 89 98
f 89 99 98
f 89 90 99
f 90 100 99
f 90 91 100
f 91 101 100
f 91 82 101
f 82 92 101
f 92 93 102
f 93 103 102
f 93 94 103
f 94 104 103
f 94 95 104
f 95 105 104
f 95 96 105
f 96 106 105
f 96 97 106
f 97 107 106
f 97 98 107
f 98 108 107
f 98 99 108
f 99 109 108
f 99 100 109
f 100 110 109
f 100 101 110
f 101 111 110
f 101 92 111
f 92 102 111
f 102 103 112
f 103 113 112
f 103 104 113
f 104 114 113
f 104 105 114
f 105 115 114
f 105 106 115
f 106 116 115
f 106 107 116
f 107 117 116
f 107 108 117
f 108 118 117
f 108 109 118
f 109 119 118
f 109 110 119
f 110 120 119
f 110 111 120
f 111 121 120
f 111 102 121
f 102 112 121
f 112 113 123
f 112 123 122
f 113 114 124
f 113 124 123
f 114 115 125
f 114 125 124
f 115 116 126
f 115 126 125
f 116 117 127
f 116 127 126
f 117 118 128
f 117 128 127
f 118 119 129
f 118 129 128
f 119 120 130
f 119 130 129
f 120 121 131
f 120 131 130
f 121 112 122
f 121 122 131
f 122 123 133
f 122 133 132
f 123 124 134
f 123 134 133
f 124 125 135
f 124 135 134
f 125 126 136
f 125 136 135
f 126 127 137
f 126 137 136
f 127 128 138
f 127 138 137
f 128 129 139
f 128 139 138
f 129 130 140
f 129 140 139
f 130 131 141
f 130 141 140
f 131 122 132
f 131 132 141
f 132 133 143
f 132 143 142
f 133 134 144
f 133 144 143
f 134 135 145
f 134 145 144
f 135 136 146
f 135 146 145
f 136 137 147
f 136 147 146
f 137 138 148
f 137 148 147
f 138 139 149
f 138 149 148
f 139 140 150
f 139 150 149
f 140 141 151
f 140 151 150
f 141 132 142
f 141 142 151
f 142 143 152
f 143 144 152
f 144 145 152
f 145 146 152
f 146 147 152
f 147 148 152
f 148 149 152
f 149 150 152
f 150 151 152
f 151 142 152
