# ShoulderMuscle_deltoid - deltoid volume (closed manifold)
# Prototype for SkinFlaps shoulder simulation
v 0.000000 6.650000 0.000000
v 1.486127 6.913818 0.000000
v 1.373003 6.913818 0.329257
v 1.050851 6.913818 0.608387
v 0.568716 6.913818 0.794896
v 0.000000 6.913818 0.860390
v -0.568716 6.913818 0.794896
v -1.050851 6.913818 0.608387
v -1.373003 6.913818 0.329257
v -1.486127 6.913818 0.000000
v -1.373003 6.913818 -0.329257
v -1.050851 6.913818 -0.608387
v -0.568716 6.913818 -0.794896
v -0.000000 6.913818 -0.860390
v 0.568716 6.913818 -0.794896
v 1.050851 6.913818 -0.608387
v 1.373003 6.913818 -0.329257
v 2.935661 6.657396 0.000000
v 2.712198 6.657396 0.650406
v 2.075826 6.657396 1.201794
v 1.123429 6.657396 1.570220
v 0.000000 6.657396 1.699593
v -1.123429 6.657396 1.570220
v -2.075826 6.657396 1.201794
v -2.712198 6.657396 0.650406
v -2.935661 6.657396 0.000000
v -2.712198 6.657396 -0.650406
v -2.075826 6.657396 -1.201794
v -1.123429 6.657396 -1.570220
v -0.000000 6.657396 -1.699593
v 1.123429 6.657396 -1.570220
v 2.075826 6.657396 -1.201794
v 2.712198 6.657396 -0.650406
v 4.312910 6.237046 0.000000
v 3.984609 6.237046 0.955541
v 3.049688 6.237046 1.765609
v 1.650479 6.237046 2.306879
v 0.000000 6.237046 2.496948
v -1.650479 6.237046 2.306879
v -3.049688 6.237046 1.765609
v -3.984609 6.237046 0.955541
v -4.312910 6.237046 0.000000
v -3.984609 6.237046 -0.955541
v -3.049688 6.237046 -1.765609
v -1.650479 6.237046 -2.306879
v -0.000000 6.237046 -2.496948
v 1.650479 6.237046 -2.306879
v 3.049688 6.237046 -1.765609
v 3.984609 6.237046 -0.955541
v 5.583960 5.663119 0.000000
v 5.158906 5.663119 1.237146
v 3.948456 5.663119 2.285948
v 2.136889 5.663119 2.986735
v 0.000000 5.663119 3.232819
v -2.136889 5.663119 2.986735
v -3.948456 5.663119 2.285948
v -5.158906 5.663119 1.237146
v -5.583960 5.663119 0.000000
v -5.158906 5.663119 -1.237146
v -3.948456 5.663119 -2.285948
v -2.136889 5.663119 -2.986735
v -0.000000 5.663119 -3.232819
v 2.136889 5.663119 -2.986735
v 3.948456 5.663119 -2.285948
v 5.158906 5.663119 -1.237146
v 6.717514 4.949747 0.000000
v 6.206174 4.949747 1.488289
v 4.750000 4.949747 2.750000
v 2.570681 4.949747 3.593048
v 0.000000 4.949747 3.889087
v -2.570681 4.949747 3.593048
v -4.750000 4.949747 2.750000
v -6.206174 4.949747 1.488289
v -6.717514 4.949747 0.000000
v -6.206174 4.949747 -1.488289
v -4.750000 4.949747 -2.750000
v -2.570681 4.949747 -3.593048
v -0.000000 4.949747 -3.889087
v 2.570681 4.949747 -3.593048
v 4.750000 4.949747 -2.750000
v 6.206174 4.949747 -1.488289
v 7.685661 4.114497 0.000000
v 7.100625 4.114497 1.702786
v 5.434583 4.114497 3.146338
v 2.941175 4.114497 4.110888
v 0.000000 4.114497 4.449593
v -2.941175 4.114497 4.110888
v -5.434583 4.114497 3.146338
v -7.100625 4.114497 1.702786
v -7.685661 4.114497 0.000000
v -7.100625 4.114497 -1.702786
v -5.434583 4.114497 -3.146338
v -2.941175 4.114497 -4.110888
v -0.000000 4.114497 -4.449593
v 2.941175 4.114497 -4.110888
v 5.434583 4.114497 -3.146338
v 7.100625 4.114497 -1.702786
v 8.464562 3.177933 0.000000
v 7.820236 3.177933 1.875354
v 5.985349 3.177933 3.465202
v 3.239248 3.177933 4.527505
v 0.000000 3.177933 4.900536
v -3.239248 3.177933 4.527505
v -5.985349 3.177933 3.465202
v -7.820236 3.177933 1.875354
v -8.464562 3.177933 0.000000
v -7.820236 3.177933 -1.875354
v -5.985349 3.177933 -3.465202
v -3.239248 3.177933 -4.527505
v -0.000000 3.177933 -4.900536
v 3.239248 3.177933 -4.527505
v 5.985349 3.177933 -3.465202
v 7.820236 3.177933 -1.875354
v 9.035037 2.163119 0.000000
v 8.347286 2.163119 2.001745
v 6.388736 2.163119 3.698742
v 3.457559 2.163119 4.832639
v 0.000000 2.163119 5.230811
v -3.457559 2.163119 4.832639
v -6.388736 2.163119 3.698742
v -8.347286 2.163119 2.001745
v -9.035037 2.163119 0.000000
v -8.347286 2.163119 -2.001745
v -6.388736 2.163119 -3.698742
v -3.457559 2.163119 -4.832639
v -0.000000 2.163119 -5.230811
v 3.457559 2.163119 -4.832639
v 6.388736 2.163119 -3.698742
v 8.347286 2.163119 -2.001745
v 9.383039 1.095041 0.000000
v 8.668798 1.095041 2.078846
v 6.634811 1.095041 3.841206
v 3.590734 1.095041 5.018778
v 0.000000 1.095041 5.432286
v -3.590734 1.095041 5.018778
v -6.634811 1.095041 3.841206
v -8.668798 1.095041 2.078846
v -9.383039 1.095041 0.000000
v -8.668798 1.095041 -2.078846
v -6.634811 1.095041 -3.841206
v -3.590734 1.095041 -5.018778
v -0.000000 1.095041 -5.432286
v 3.590734 1.095041 -5.018778
v 6.634811 1.095041 -3.841206
v 8.668798 1.095041 -2.078846
v 9.500000 0.000000 0.000000
v 8.776856 0.000000 2.104759
v 6.717514 0.000000 3.889087
v 3.635493 0.000000 5.081337
v 0.000000 0.000000 5.500000
v -3.635493 0.000000 5.081337
v -6.717514 0.000000 3.889087
v -8.776856 0.000000 2.104759
v -9.500000 0.000000 0.000000
v -8.776856 0.000000 -2.104759
v -6.717514 0.000000 -3.889087
v -3.635493 0.000000 -5.081337
v -0.000000 0.000000 -5.500000
v 3.635493 0.000000 -5.081337
v 6.717514 0.000000 -3.889087
v 8.776856 0.000000 -2.104759
v 1.376623 6.222437 0.000000
v 1.271834 6.222437 0.287351
v 0.973420 6.222437 0.530956
v 0.526811 6.222437 0.693728
v 0.000000 6.222437 0.750885
v -0.526811 6.222437 0.693728
v -0.973420 6.222437 0.530956
v -1.271834 6.222437 0.287351
v -1.376623 6.222437 0.000000
v -1.271834 6.222437 -0.287351
v -0.973420 6.222437 -0.530956
v -0.526811 6.222437 -0.693728
v -0.000000 6.222437 -0.750885
v 0.526811 6.222437 -0.693728
v 0.973420 6.222437 -0.530956
v 1.271834 6.222437 -0.287351
v 2.719350 5.991656 0.000000
v 2.512351 5.991656 0.567627
v 1.922871 5.991656 1.048838
v 1.040650 5.991656 1.370373
v 0.000000 5.991656 1.483282
v -1.040650 5.991656 1.370373
v -1.922871 5.991656 1.048838
v -2.512351 5.991656 0.567627
v -2.719350 5.991656 0.000000
v -2.512351 5.991656 -0.567627
v -1.922871 5.991656 -1.048838
v -1.040650 5.991656 -1.370373
v -0.000000 5.991656 -1.483282
v 1.040650 5.991656 -1.370373
v 1.922871 5.991656 -1.048838
v 2.512351 5.991656 -0.567627
v 3.995116 5.613341 0.000000
v 3.691006 5.613341 0.833926
v 2.824974 5.613341 1.540895
v 1.528865 5.613341 2.013276
v 0.000000 5.613341 2.179154
v -1.528865 5.613341 2.013276
v -2.824974 5.613341 1.540895
v -3.691006 5.613341 0.833926
v -3.995116 5.613341 0.000000
v -3.691006 5.613341 -0.833926
v -2.824974 5.613341 -1.540895
v -1.528865 5.613341 -2.013276
v -0.000000 5.613341 -2.179154
v 1.528865 5.613341 -2.013276
v 2.824974 5.613341 -1.540895
v 3.691006 5.613341 -0.833926
v 5.172510 5.096807 0.000000
v 4.778776 5.096807 1.079691
v 3.657517 5.096807 1.995009
v 1.979434 5.096807 2.606605
v 0.000000 5.096807 2.821369
v -1.979434 5.096807 2.606605
v -3.657517 5.096807 1.995009
v -4.778776 5.096807 1.079691
v -5.172510 5.096807 0.000000
v -4.778776 5.096807 -1.079691
v -3.657517 5.096807 -1.995009
v -1.979434 5.096807 -2.606605
v -0.000000 5.096807 -2.821369
v 1.979434 5.096807 -2.606605
v 3.657517 5.096807 -1.995009
v 4.778776 5.096807 -1.079691
v 6.222540 4.454773 0.000000
v 5.748877 4.454773 1.298871
v 4.400000 4.454773 2.400000
v 2.381263 4.454773 3.135751
v 0.000000 4.454773 3.394113
v -2.381263 4.454773 3.135751
v -4.400000 4.454773 2.400000
v -5.748877 4.454773 1.298871
v -6.222540 4.454773 0.000000
v -5.748877 4.454773 -1.298871
v -4.400000 4.454773 -2.400000
v -2.381263 4.454773 -3.135751
v -0.000000 4.454773 -3.394113
v 2.381263 4.454773 -3.135751
v 4.400000 4.454773 -2.400000
v 5.748877 4.454773 -1.298871
v 7.119350 3.703047 0.000000
v 6.577421 3.703047 1.486068
v 5.034140 3.703047 2.745895
v 2.724457 3.703047 3.587684
v 0.000000 3.703047 3.883282
v -2.724457 3.703047 3.587684
v -5.034140 3.703047 2.745895
v -6.577421 3.703047 1.486068
v -7.119350 3.703047 0.000000
v -6.577421 3.703047 -1.486068
v -5.034140 3.703047 -2.745895
v -2.724457 3.703047 -3.587684
v -0.000000 3.703047 -3.883282
v 2.724457 3.703047 -3.587684
v 5.034140 3.703047 -2.745895
v 6.577421 3.703047 -1.486068
v 7.840857 2.860140 0.000000
v 7.244008 2.860140 1.636672
v 5.544323 2.860140 3.024176
v 3.000566 2.860140 3.951277
v 0.000000 2.860140 4.276831
v -3.000566 2.860140 3.951277
v -5.544323 2.860140 3.024176
v -7.244008 2.860140 1.636672
v -7.840857 2.860140 0.000000
v -7.244008 2.860140 -1.636672
v -5.544323 2.860140 -3.024176
v -3.000566 2.860140 -3.951277
v -0.000000 2.860140 -4.276831
v 3.000566 2.860140 -3.951277
v 5.544323 2.860140 -3.024176
v 7.244008 2.860140 -1.636672
v 8.369297 1.946807 0.000000
v 7.732223 1.946807 1.746977
v 5.917987 1.946807 3.227993
v 3.202791 1.946807 4.217576
v 0.000000 1.946807 4.565071
v -3.202791 1.946807 4.217576
v -5.917987 1.946807 3.227993
v -7.732223 1.946807 1.746977
v -8.369297 1.946807 0.000000
v -7.732223 1.946807 -1.746977
v -5.917987 1.946807 -3.227993
v -3.202791 1.946807 -4.217576
v -0.000000 1.946807 -4.565071
v 3.202791 1.946807 -4.217576
v 5.917987 1.946807 -3.227993
v 7.732223 1.946807 -1.746977
v 8.691657 0.985537 0.000000
v 8.030044 0.985537 1.814265
v 6.145930 0.985537 3.352325
v 3.326153 0.985537 4.380024
v 0.000000 0.985537 4.740904
v -3.326153 0.985537 4.380024
v -6.145930 0.985537 3.352325
v -8.030044 0.985537 1.814265
v -8.691657 0.985537 0.000000
v -8.030044 0.985537 -1.814265
v -6.145930 0.985537 -3.352325
v -3.326153 0.985537 -4.380024
v -0.000000 0.985537 -4.740904
v 3.326153 0.985537 -4.380024
v 6.145930 0.985537 -3.352325
v 8.030044 0.985537 -1.814265
v 8.800000 0.000000 0.000000
v 8.130140 0.000000 1.836880
v 6.222540 0.000000 3.394113
v 3.367614 0.000000 4.434622
v 0.000000 0.000000 4.800000
v -3.367614 0.000000 4.434622
v -6.222540 0.000000 3.394113
v -8.130140 0.000000 1.836880
v -8.800000 0.000000 0.000000
v -8.130140 0.000000 -1.836880
v -6.222540 0.000000 -3.394113
v -3.367614 0.000000 -4.434622
v -0.000000 0.000000 -4.800000
v 3.367614 0.000000 -4.434622
v 6.222540 0.000000 -3.394113
v 8.130140 0.000000 -1.836880
f 1 3 2
f 1 4 3
f 1 5 4
f 1 6 5
f 1 7 6
f 1 8 7
f 1 9 8
f 1 10 9
f 1 11 10
f 1 12 11
f 1 13 12
f 1 14 13
f 1 15 14
f 1 16 15
f 1 17 16
f 1 2 17
f 2 18 3
f 3 18 19
f 3 19 4
f 4 19 20
f 4 20 5
f 5 20 21
f 5 21 6
f 6 21 22
f 6 22 7
f 7 22 23
f 7 23 8
f 8 23 24
f 8 24 9
f 9 24 25
f 9 25 10
f 10 25 26
f 10 26 11
f 11 26 27
f 11 27 12
f 12 27 28
f 12 28 13
f 13 28 29
f 13 29 14
f 14 29 30
f 14 30 15
f 15 30 31
f 15 31 16
f 16 31 32
f 16 32 17
f 17 32 33
f 17 33 2
f 2 33 18
f 18 34 19
f 19 34 35
f 19 35 20
f 20 35 36
f 20 36 21
f 21 36 37
f 21 37 22
f 22 37 38
f 22 38 23
f 23 38 39
f 23 39 24
f 24 39 40
f 24 40 25
f 25 40 41
f 25 41 26
f 26 41 42
f 26 42 27
f 27 42 43
f 27 43 28
f 28 43 44
f 28 44 29
f 29 44 45
f 29 45 30
f 30 45 46
f 30 46 31
f 31 46 47
f 31 47 32
f 32 47 48
f 32 48 33
f 33 48 49
f 33 49 18
f 18 49 34
f 34 50 35
f 35 50 51
f 35 51 36
f 36 51 52
f 36 52 37
f 37 52 53
f 37 53 38
f 38 53 54
f 38 54 39
f 39 54 55
f 39 55 40
f 40 55 56
f 40 56 41
f 41 56 57
f 41 57 42
f 42 57 58
f 42 58 43
f 43 58 59
f 43 59 44
f 44 59 60
f 44 60 45
f 45 60 61
f 45 61 46
f 46 61 62
f 46 62 47
f 47 62 63
f 47 63 48
f 48 63 64
f 48 64 49
f 49 64 65
f 49 65 34
f 34 65 50
f 50 66 51
f 51 66 67
f 51 67 52
f 52 67 68
f 52 68 53
f 53 68 69
f 53 69 54
f 54 69 70
f 54 70 55
f 55 70 71
f 55 71 56
f 56 71 72
f 56 72 57
f 57 72 73
f 57 73 58
f 58 73 74
f 58 74 59
f 59 74 75
f 59 75 60
f 60 75 76
f 60 76 61
f 61 76 77
f 61 77 62
f 62 77 78
f 62 78 63
f 63 78 79
f 63 79 64
f 64 79 80
f 64 80 65
f 65 80 81
f 65 81 50
f 50 81 66
f 66 82 67
f 67 82 83
f 67 83 68
f 68 83 84
f 68 84 69
f 69 84 85
f 69 85 70
f 70 85 86
f 70 86 71
f 71 86 87
f 71 87 72
f 72 87 88
f 72 88 73
f 73 88 89
f 73 89 74
f 74 89 90
f 74 90 75
f 75 90 91
f 75 91 76
f 76 91 92
f 76 92 77
f 77 92 93
f 77 93 78
f 78 93 94
f 78 94 79
f 79 94 95
f 79 95 80
f 80 95 96
f 80 96 81
f 81 96 97
f 81 97 66
f 66 97 82
f 82 98 83
f 83 98 99
f 83 99 84
f 84 99 100
f 84 100 85
f 85 100 101
f 85 101 86
f 86 101 102
f 86 102 87
f 87 102 103
f 87 103 88
f 88 103 104
f 88 104 89
f 89 104 105
f 89 105 90
f 90 105 106
f 90 106 91
f 91 106 107
f 91 107 92
f 92 107 108
f 92 108 93
f 93 108 109
f 93 109 94
f 94 109 110
f 94 110 95
f 95 110 111
f 95 111 96
f 96 111 112
f 96 112 97
f 97 112 113
f 97 113 82
f 82 113 98
f 98 114 99
f 99 114 115
f 99 115 100
f 100 115 116
f 100 116 101
f 101 116 117
f 101 117 102
f 102 117 118
f 102 118 103
f 103 118 119
f 103 119 104
f 104 119 120
f 104 120 105
f 105 120 121
f 105 121 106
f 106 121 122
f 106 122 107
f 107 122 123
f 107 123 108
f 108 123 124
f 108 124 109
f 109 124 125
f 109 125 110
f 110 125 126
f 110 126 111
f 111 126 127
f 111 127 112
f 112 127 128
f 112 128 113
f 113 128 129
f 113 129 98
f 98 129 114
f 114 130 115
f 115 130 131
f 115 131 116
f 116 131 132
f 116 132 117
f 117 132 133
f 117 133 118
f 118 133 134
f 118 134 119
f 119 134 135
f 119 135 120
f 120 135 136
f 120 136 121
f 121 136 137
f 121 137 122
f 122 137 138
f 122 138 123
f 123 138 139
f 123 139 124
f 124 139 140
f 124 140 125
f 125 140 141
f 125 141 126
f 126 141 142
f 126 142 127
f 127 142 143
f 127 143 128
f 128 143 144
f 128 144 129
f 129 144 145
f 129 145 114
f 114 145 130
f 130 146 131
f 131 146 147
f 131 147 132
f 132 147 148
f 132 148 133
f 133 148 149
f 133 149 134
f 134 149 150
f 134 150 135
f 135 150 151
f 135 151 136
f 136 151 152
f 136 152 137
f 137 152 153
f 137 153 138
f 138 153 154
f 138 154 139
f 139 154 155
f 139 155 140
f 140 155 156
f 140 156 141
f 141 156 157
f 141 157 142
f 142 157 158
f 142 158 143
f 143 158 159
f 143 159 144
f 144 159 160
f 144 160 145
f 145 160 161
f 145 161 130
f 130 161 146
f 1 162 163
f 1 163 164
f 1 164 165
f 1 165 166
f 1 166 167
f 1 167 168
f 1 168 169
f 1 169 170
f 1 170 171
f 1 171 172
f 1 172 173
f 1 173 174
f 1 174 175
f 1 175 176
f 1 176 177
f 1 177 162
f 162 163 178
f 163 179 178
f 163 164 179
f 164 180 179
f 164 165 180
f 165 181 180
f 165 166 181
f 166 182 181
f 166 167 182
f 167 183 182
f 167 168 183
f 168 184 183
f 168 169 184
f 169 185 184
f 169 170 185
f 170 186 185
f 170 171 186
f 171 187 186
f 171 172 187
f 172 188 187
f 172 173 188
f 173 189 188
f 173 174 189
f 174 190 189
f 174 175 190
f 175 191 190
f 175 176 191
f 176 192 191
f 176 177 192
f 177 193 192
f 177 162 193
f 162 178 193
f 178 179 194
f 179 195 194
f 179 180 195
f 180 196 195
f 180 181 196
f 181 197 196
f 181 182 197
f 182 198 197
f 182 183 198
f 183 199 198
f 183 184 199
f 184 200 199
f 184 185 200
f 185 201 200
f 185 186 201
f 186 202 201
f 186 187 202
f 187 203 202
f 187 188 203
f 188 204 203
f 188 189 204
f 189 205 204
f 189 190 205
f 190 206 205
f 190 191 206
f 191 207 206
f 191 192 207
f 192 208 207
f 192 193 208
f 193 209 208
f 193 178 209
f 178 194 209
f 194 195 210
f 195 211 210
f 195 196 211
f 196 212 211
f 196 197 212
f 197 213 212
f 197 198 213
f 198 214 213
f 198 199 214
f 199 215 214
f 199 200 215
f 200 216 215
f 200 201 216
f 201 217 216
f 201 202 217
f 202 218 217
f 202 203 218
f 203 219 218
f 203 204 219
f 204 220 219
f 204 205 220
f 205 221 220
f 205 206 221
f 206 222 221
f 206 207 222
f 207 223 222
f 207 208 223
f 208 224 223
f 208 209 224
f 209 225 224
f 209 194 225
f 194 210 225
f 210 211 226
f 211 227 226
f 211 212 227
f 212 228 227
f 212 213 228
f 213 229 228
f 213 214 229
f 214 230 229
f 214 215 230
f 215 231 230
f 215 216 231
f 216 232 231
f 216 217 232
f 217 233 232
f 217 218 233
f 218 234 233
f 218 219 234
f 219 235 234
f 219 220 235
f 220 236 235
f 220 221 236
f 221 237 236
f 221 222 237
f 222 238 237
f 222 223 238
f 223 239 238
f 223 224 239
f 224 240 239
f 224 225 240
f 225 241 240
f 225 210 241
f 210 226 241
f 226 227 242
f 227 243 242
f 227 228 243
f 228 244 243
f 228 229 244
f 229 245 244
f 229 230 245
f 230 246 245
f 230 231 246
f 231 247 246
f 231 232 247
f 232 248 247
f 232 233 248
f 233 249 248
f 233 234 249
f 234 250 249
f 234 235 250
f 235 251 250
f 235 236 251
f 236 252 251
f 236 237 252
f 237 253 252
f 237 238 253
f 238 254 253
f 238 239 254
f 239 255 254
f 239 240 255
f 240 256 255
f 240 241 256
f 241 257 256
f 241 226 257
f 226 242 257
f 242 243 258
f 243 259 258
f 243 244 259
f 244 260 259
f 244 245 260
f 245 261 260
f 245 246 261
f 246 262 261
f 246 247 262
f 247 263 262
f 247 248 263
f 248 264 263
f 248 249 264
f 249 265 264
f 249 250 265
f 250 266 265
f 250 251 266
f 251 267 266
f 251 252 267
f 252 268 267
f 252 253 268
f 253 269 268
f 253 254 269
f 254 270 269
f 254 255 270
f 255 271 270
f 255 256 271
f 256 272 271
f 256 257 272
f 257 273 272
f 257 242 273
f 242 258 273
f 258 259 274
f 259 275 274
f 259 260 275
f 260 276 275
f 260 261 276
f 261 277 276
f 261 262 277
f 262 278 277
f 262 263 278
f 263 279 278
f 263 264 279
f 264 280 279
f 264 265 280
f 265 281 280
f 265 266 281
f 266 282 281
f 266 267 282
f 267 283 282
f 267 268 283
f 268 284 283
f 268 269 284
f 269 285 284
f 269 270 285
f 270 286 285
f 270 271 286
f 271 287 286
f 271 272 287
f 272 288 287
f 272 273 288
f 273 289 288
f 273 258 289
f 258 274 289
f 274 275 290
f 275 291 290
f 275 276 291
f 276 292 291
f 276 277 292
f 277 293 292
f 277 278 293
f 278 294 293
f 278 279 294
f 279 295 294
f 279 280 295
f 280 296 295
f 280 281 296
f 281 297 296
f 281 282 297
f 282 298 297
f 282 283 298
f 283 299 298
f 283 284 299
f 284 300 299
f 284 285 300
f 285 301 300
f 285 286 301
f 286 302 301
f 286 287 302
f 287 303 302
f 287 288 303
f 288 304 303
f 288 289 304
f 289 305 304
f 289 274 305
f 274 290 305
f 290 291 306
f 291 307 306
f 291 292 307
f 292 308 307
f 292 293 308
f 293 309 308
f 293 294 309
f 294 310 309
f 294 295 310
f 295 311 310
f 295 296 311
f 296 312 311
f 296 297 312
f 297 313 312
f 297 298 313
f 298 314 313
f 298 299 314
f 299 315 314
f 299 300 315
f 300 316 315
f 300 301 316
f 301 317 316
f 301 302 317
f 302 318 317
f 302 303 318
f 303 319 318
f 303 304 319
f 304 320 319
f 304 305 320
f 305 321 320
f 305 290 321
f 290 306 321
f 146 147 307
f 146 307 306
f 147 148 308
f 147 308 307
f 148 149 309
f 148 309 308
f 149 150 310
f 149 310 309
f 150 151 311
f 150 311 310
f 151 152 312
f 151 312 311
f 152 153 313
f 152 313 312
f 153 154 314
f 153 314 313
f 154 155 315
f 154 315 314
f 155 156 316
f 155 316 315
f 156 157 317
f 156 317 316
f 157 158 318
f 157 318 317
f 158 159 319
f 158 319 318
f 159 160 320
f 159 320 319
f 160 161 321
f 160 321 320
f 161 146 306
f 161 306 321
