# Simple 3D Rectangular Dome Patch
# 5x5 grid with dome curvature (25 vertices, 32 triangles)
# Created for SkinFlaps surgical simulator testing
#
o simple_rect_dome
# Vertices (5x5 grid with parabolic dome height)
# Row 0 (y = -1.0)
v -1.000000 -1.000000 0.000000
v -0.500000 -1.000000 0.125000
v 0.000000 -1.000000 0.166667
v 0.500000 -1.000000 0.125000
v 1.000000 -1.000000 0.000000
# Row 1 (y = -0.5)
v -1.000000 -0.500000 0.125000
v -0.500000 -0.500000 0.312500
v 0.000000 -0.500000 0.416667
v 0.500000 -0.500000 0.312500
v 1.000000 -0.500000 0.125000
# Row 2 (y = 0.0) - center row with max height
v -1.000000 0.000000 0.166667
v -0.500000 0.000000 0.416667
v 0.000000 0.000000 0.555556
v 0.500000 0.000000 0.416667
v 1.000000 0.000000 0.166667
# Row 3 (y = 0.5)
v -1.000000 0.500000 0.125000
v -0.500000 0.500000 0.312500
v 0.000000 0.500000 0.416667
v 0.500000 0.500000 0.312500
v 1.000000 0.500000 0.125000
# Row 4 (y = 1.0)
v -1.000000 1.000000 0.000000
v -0.500000 1.000000 0.125000
v 0.000000 1.000000 0.166667
v 0.500000 1.000000 0.125000
v 1.000000 1.000000 0.000000

# Texture coordinates (5x5 grid)
vt 0.000000 0.000000
vt 0.250000 0.000000
vt 0.500000 0.000000
vt 0.750000 0.000000
vt 1.000000 0.000000
vt 0.000000 0.250000
vt 0.250000 0.250000
vt 0.500000 0.250000
vt 0.750000 0.250000
vt 1.000000 0.250000
vt 0.000000 0.500000
vt 0.250000 0.500000
vt 0.500000 0.500000
vt 0.750000 0.500000
vt 1.000000 0.500000
vt 0.000000 0.750000
vt 0.250000 0.750000
vt 0.500000 0.750000
vt 0.750000 0.750000
vt 1.000000 0.750000
vt 0.000000 1.000000
vt 0.250000 1.000000
vt 0.500000 1.000000
vt 0.750000 1.000000
vt 1.000000 1.000000

# Vertex normals (pointing outward from dome surface)
vn 0.000000 0.000000 1.000000
vn 0.196116 0.000000 0.980581
vn 0.000000 0.196116 0.980581
vn -0.196116 0.000000 0.980581
vn 0.000000 -0.196116 0.980581
vn 0.138675 0.138675 0.980581
vn -0.138675 0.138675 0.980581
vn -0.138675 -0.138675 0.980581
vn 0.138675 -0.138675 0.980581

# Faces (32 triangles from 4x4 grid of quads)
# Row 0-1
f 1/1/1 2/2/1 6/6/1
f 2/2/1 7/7/1 6/6/1
f 2/2/1 3/3/1 7/7/1
f 3/3/1 8/8/1 7/7/1
f 3/3/1 4/4/1 8/8/1
f 4/4/1 9/9/1 8/8/1
f 4/4/1 5/5/1 9/9/1
f 5/5/1 10/10/1 9/9/1
# Row 1-2
f 6/6/1 7/7/1 11/11/1
f 7/7/1 12/12/1 11/11/1
f 7/7/1 8/8/1 12/12/1
f 8/8/1 13/13/1 12/12/1
f 8/8/1 9/9/1 13/13/1
f 9/9/1 14/14/1 13/13/1
f 9/9/1 10/10/1 14/14/1
f 10/10/1 15/15/1 14/14/1
# Row 2-3
f 11/11/1 12/12/1 16/16/1
f 12/12/1 17/17/1 16/16/1
f 12/12/1 13/13/1 17/17/1
f 13/13/1 18/18/1 17/17/1
f 13/13/1 14/14/1 18/18/1
f 14/14/1 19/19/1 18/18/1
f 14/14/1 15/15/1 19/19/1
f 15/15/1 20/20/1 19/19/1
# Row 3-4
f 16/16/1 17/17/1 21/21/1
f 17/17/1 22/22/1 21/21/1
f 17/17/1 18/18/1 22/22/1
f 18/18/1 23/23/1 22/22/1
f 18/18/1 19/19/1 23/23/1
f 19/19/1 24/24/1 23/23/1
f 19/19/1 20/20/1 24/24/1
f 20/20/1 25/25/1 24/24/1
