# Simple 3D Circular Dome Patch (Hemisphere)
# 3 concentric rings + center (49 vertices, 80 triangles)
# Created for SkinFlaps surgical simulator testing
#
o simple_circle_dome
# Vertex 1: Center top of dome
v 0.000000 0.000000 0.500000

# Ring 1 (radius 0.333, height 0.444) - 8 vertices
v 0.333000 0.000000 0.444000
v 0.235500 0.235500 0.444000
v 0.000000 0.333000 0.444000
v -0.235500 0.235500 0.444000
v -0.333000 0.000000 0.444000
v -0.235500 -0.235500 0.444000
v 0.000000 -0.333000 0.444000
v 0.235500 -0.235500 0.444000

# Ring 2 (radius 0.667, height 0.278) - 16 vertices
v 0.667000 0.000000 0.278000
v 0.577350 0.333500 0.278000
v 0.471400 0.471400 0.278000
v 0.333500 0.577350 0.278000
v 0.000000 0.667000 0.278000
v -0.333500 0.577350 0.278000
v -0.471400 0.471400 0.278000
v -0.577350 0.333500 0.278000
v -0.667000 0.000000 0.278000
v -0.577350 -0.333500 0.278000
v -0.471400 -0.471400 0.278000
v -0.333500 -0.577350 0.278000
v 0.000000 -0.667000 0.278000
v 0.333500 -0.577350 0.278000
v 0.471400 -0.471400 0.278000
v 0.577350 -0.333500 0.278000

# Ring 3 (radius 1.0, height 0.0) - 24 vertices (base edge)
v 1.000000 0.000000 0.000000
v 0.923880 0.382683 0.000000
v 0.707107 0.707107 0.000000
v 0.382683 0.923880 0.000000
v 0.000000 1.000000 0.000000
v -0.382683 0.923880 0.000000
v -0.707107 0.707107 0.000000
v -0.923880 0.382683 0.000000
v -1.000000 0.000000 0.000000
v -0.923880 -0.382683 0.000000
v -0.707107 -0.707107 0.000000
v -0.382683 -0.923880 0.000000
v 0.000000 -1.000000 0.000000
v 0.382683 -0.923880 0.000000
v 0.707107 -0.707107 0.000000
v 0.923880 -0.382683 0.000000

# Texture coordinates
# Center
vt 0.500000 0.500000
# Ring 1
vt 0.666667 0.500000
vt 0.617851 0.617851
vt 0.500000 0.666667
vt 0.382149 0.617851
vt 0.333333 0.500000
vt 0.382149 0.382149
vt 0.500000 0.333333
vt 0.617851 0.382149
# Ring 2
vt 0.833333 0.500000
vt 0.769127 0.666667
vt 0.666667 0.769127
vt 0.500000 0.833333
vt 0.333333 0.769127
vt 0.230873 0.666667
vt 0.166667 0.500000
vt 0.230873 0.333333
vt 0.333333 0.230873
vt 0.500000 0.166667
vt 0.666667 0.230873
vt 0.769127 0.333333
# Ring 3 (outer edge)
vt 1.000000 0.500000
vt 0.961940 0.691342
vt 0.853553 0.853553
vt 0.691342 0.961940
vt 0.500000 1.000000
vt 0.308658 0.961940
vt 0.146447 0.853553
vt 0.038060 0.691342
vt 0.000000 0.500000
vt 0.038060 0.308658
vt 0.146447 0.146447
vt 0.308658 0.038060
vt 0.500000 0.000000
vt 0.691342 0.038060
vt 0.853553 0.146447
vt 0.961940 0.308658

# Vertex normals (pointing outward from dome)
vn 0.000000 0.000000 1.000000
vn 0.554700 0.000000 0.832050
vn 0.392232 0.392232 0.832050
vn 0.000000 0.554700 0.832050
vn -0.392232 0.392232 0.832050
vn -0.554700 0.000000 0.832050
vn -0.392232 -0.392232 0.832050
vn 0.000000 -0.554700 0.832050
vn 0.392232 -0.392232 0.832050

# Faces - Center to Ring 1 (8 triangles)
f 1/1/1 2/2/2 3/3/3
f 1/1/1 3/3/3 4/4/4
f 1/1/1 4/4/4 5/5/5
f 1/1/1 5/5/5 6/6/6
f 1/1/1 6/6/6 7/7/7
f 1/1/1 7/7/7 8/8/8
f 1/1/1 8/8/8 9/9/9
f 1/1/1 9/9/9 2/2/2

# Faces - Ring 1 to Ring 2 (24 triangles)
f 2/2/2 10/10/2 11/11/2
f 2/2/2 11/11/2 3/3/3
f 3/3/3 11/11/3 12/12/3
f 3/3/3 12/12/3 13/13/3
f 3/3/3 13/13/3 4/4/4
f 4/4/4 13/13/4 14/14/4
f 4/4/4 14/14/4 15/15/4
f 4/4/4 15/15/4 5/5/5
f 5/5/5 15/15/5 16/16/5
f 5/5/5 16/16/5 17/17/5
f 5/5/5 17/17/5 6/6/6
f 6/6/6 17/17/6 18/18/6
f 6/6/6 18/18/6 19/19/6
f 6/6/6 19/19/6 7/7/7
f 7/7/7 19/19/7 20/20/7
f 7/7/7 20/20/7 21/21/7
f 7/7/7 21/21/7 8/8/8
f 8/8/8 21/21/8 22/22/8
f 8/8/8 22/22/8 23/23/8
f 8/8/8 23/23/8 9/9/9
f 9/9/9 23/23/9 24/24/9
f 9/9/9 24/24/9 25/25/9
f 9/9/9 25/25/9 2/2/2
f 2/2/2 25/25/2 10/10/2

# Faces - Ring 2 to Ring 3 (48 triangles)
f 10/10/2 26/26/2 27/27/2
f 10/10/2 27/27/2 28/28/2
f 10/10/2 28/28/2 11/11/2
f 11/11/3 28/28/3 29/29/3
f 11/11/3 29/29/3 12/12/3
f 12/12/3 29/29/3 30/30/3
f 12/12/3 30/30/3 13/13/3
f 13/13/4 30/30/4 31/31/4
f 13/13/4 31/31/4 14/14/4
f 14/14/4 31/31/4 32/32/4
f 14/14/4 32/32/4 33/33/4
f 14/14/4 33/33/4 15/15/4
f 15/15/5 33/33/5 34/34/5
f 15/15/5 34/34/5 16/16/5
f 16/16/5 34/34/5 35/35/5
f 16/16/5 35/35/5 17/17/5
f 17/17/6 35/35/6 36/36/6
f 17/17/6 36/36/6 18/18/6
f 18/18/6 36/36/6 37/37/6
f 18/18/6 37/37/6 19/19/6
f 19/19/7 37/37/7 38/38/7
f 19/19/7 38/38/7 20/20/7
f 20/20/7 38/38/7 39/39/7
f 20/20/7 39/39/7 21/21/7
f 21/21/8 39/39/8 40/40/8
f 21/21/8 40/40/8 22/22/8
f 22/22/8 40/40/8 41/41/8
f 22/22/8 41/41/8 23/23/8
f 23/23/9 41/41/9 42/42/9
f 23/23/9 42/42/9 24/24/9
f 24/24/9 42/42/9 43/43/9
f 24/24/9 43/43/9 44/44/9
f 24/24/9 44/44/9 25/25/9
f 25/25/2 44/44/2 45/45/2
f 25/25/2 45/45/2 46/46/2
f 25/25/2 46/46/2 47/47/2
f 25/25/2 47/47/2 48/48/2
f 25/25/2 48/48/2 49/49/2
f 25/25/2 49/49/2 10/10/2
f 10/10/2 49/49/2 26/26/2
