# Simple Rectangular Patch Model for SkinFlaps
# A 4x4 subdivided plane suitable for basic physics simulation
# Size: 2.0 x 2.0 units, centered at origin
# Total: 25 vertices, 32 triangles

# Vertices (5x5 grid)
v -1.0 -1.0 0.0
v -0.5 -1.0 0.0
v  0.0 -1.0 0.0
v  0.5 -1.0 0.0
v  1.0 -1.0 0.0
v -1.0 -0.5 0.0
v -0.5 -0.5 0.0
v  0.0 -0.5 0.0
v  0.5 -0.5 0.0
v  1.0 -0.5 0.0
v -1.0  0.0 0.0
v -0.5  0.0 0.0
v  0.0  0.0 0.0
v  0.5  0.0 0.0
v  1.0  0.0 0.0
v -1.0  0.5 0.0
v -0.5  0.5 0.0
v  0.0  0.5 0.0
v  0.5  0.5 0.0
v  1.0  0.5 0.0
v -1.0  1.0 0.0
v -0.5  1.0 0.0
v  0.0  1.0 0.0
v  0.5  1.0 0.0
v  1.0  1.0 0.0

# Texture Coordinates (5x5 grid, 0-1 range)
vt 0.00 0.00
vt 0.25 0.00
vt 0.50 0.00
vt 0.75 0.00
vt 1.00 0.00
vt 0.00 0.25
vt 0.25 0.25
vt 0.50 0.25
vt 0.75 0.25
vt 1.00 0.25
vt 0.00 0.50
vt 0.25 0.50
vt 0.50 0.50
vt 0.75 0.50
vt 1.00 0.50
vt 0.00 0.75
vt 0.25 0.75
vt 0.50 0.75
vt 0.75 0.75
vt 1.00 0.75
vt 0.00 1.00
vt 0.25 1.00
vt 0.50 1.00
vt 0.75 1.00
vt 1.00 1.00

# Normals (all facing +Z)
vn 0.0 0.0 1.0

# Faces (triangles) - Row 1
f 1/1/1 2/2/1 7/7/1
f 1/1/1 7/7/1 6/6/1
f 2/2/1 3/3/1 8/8/1
f 2/2/1 8/8/1 7/7/1
f 3/3/1 4/4/1 9/9/1
f 3/3/1 9/9/1 8/8/1
f 4/4/1 5/5/1 10/10/1
f 4/4/1 10/10/1 9/9/1

# Faces - Row 2
f 6/6/1 7/7/1 12/12/1
f 6/6/1 12/12/1 11/11/1
f 7/7/1 8/8/1 13/13/1
f 7/7/1 13/13/1 12/12/1
f 8/8/1 9/9/1 14/14/1
f 8/8/1 14/14/1 13/13/1
f 9/9/1 10/10/1 15/15/1
f 9/9/1 15/15/1 14/14/1

# Faces - Row 3
f 11/11/1 12/12/1 17/17/1
f 11/11/1 17/17/1 16/16/1
f 12/12/1 13/13/1 18/18/1
f 12/12/1 18/18/1 17/17/1
f 13/13/1 14/14/1 19/19/1
f 13/13/1 19/19/1 18/18/1
f 14/14/1 15/15/1 20/20/1
f 14/14/1 20/20/1 19/19/1

# Faces - Row 4
f 16/16/1 17/17/1 22/22/1
f 16/16/1 22/22/1 21/21/1
f 17/17/1 18/18/1 23/23/1
f 17/17/1 23/23/1 22/22/1
f 18/18/1 19/19/1 24/24/1
f 18/18/1 24/24/1 23/23/1
f 19/19/1 20/20/1 25/25/1
f 19/19/1 25/25/1 24/24/1
