# Simple Circular Patch Model for SkinFlaps
# A disc shape with 16 segments and 3 rings
# Radius: 1.0 unit, centered at origin
# Total: 49 vertices, 80 triangles

# Center vertex
v 0.0 0.0 0.0

# Ring 1 (radius 0.33) - 16 vertices
v  0.330  0.000 0.0
v  0.303  0.127 0.0
v  0.233  0.233 0.0
v  0.127  0.303 0.0
v  0.000  0.330 0.0
v -0.127  0.303 0.0
v -0.233  0.233 0.0
v -0.303  0.127 0.0
v -0.330  0.000 0.0
v -0.303 -0.127 0.0
v -0.233 -0.233 0.0
v -0.127 -0.303 0.0
v  0.000 -0.330 0.0
v  0.127 -0.303 0.0
v  0.233 -0.233 0.0
v  0.303 -0.127 0.0

# Ring 2 (radius 0.67) - 16 vertices
v  0.670  0.000 0.0
v  0.615  0.257 0.0
v  0.474  0.474 0.0
v  0.257  0.615 0.0
v  0.000  0.670 0.0
v -0.257  0.615 0.0
v -0.474  0.474 0.0
v -0.615  0.257 0.0
v -0.670  0.000 0.0
v -0.615 -0.257 0.0
v -0.474 -0.474 0.0
v -0.257 -0.615 0.0
v  0.000 -0.670 0.0
v  0.257 -0.615 0.0
v  0.474 -0.474 0.0
v  0.615 -0.257 0.0

# Ring 3 (radius 1.0) - 16 vertices (outer edge)
v  1.000  0.000 0.0
v  0.924  0.383 0.0
v  0.707  0.707 0.0
v  0.383  0.924 0.0
v  0.000  1.000 0.0
v -0.383  0.924 0.0
v -0.707  0.707 0.0
v -0.924  0.383 0.0
v -1.000  0.000 0.0
v -0.924 -0.383 0.0
v -0.707 -0.707 0.0
v -0.383 -0.924 0.0
v  0.000 -1.000 0.0
v  0.383 -0.924 0.0
v  0.707 -0.707 0.0
v  0.924 -0.383 0.0

# Texture Coordinates
# Center
vt 0.5 0.5
# Ring 1 (radius 0.165 in UV space)
vt 0.665 0.500
vt 0.651 0.563
vt 0.617 0.617
vt 0.563 0.651
vt 0.500 0.665
vt 0.437 0.651
vt 0.383 0.617
vt 0.349 0.563
vt 0.335 0.500
vt 0.349 0.437
vt 0.383 0.383
vt 0.437 0.349
vt 0.500 0.335
vt 0.563 0.349
vt 0.617 0.383
vt 0.651 0.437
# Ring 2 (radius 0.335 in UV space)
vt 0.835 0.500
vt 0.808 0.628
vt 0.737 0.737
vt 0.628 0.808
vt 0.500 0.835
vt 0.372 0.808
vt 0.263 0.737
vt 0.192 0.628
vt 0.165 0.500
vt 0.192 0.372
vt 0.263 0.263
vt 0.372 0.192
vt 0.500 0.165
vt 0.628 0.192
vt 0.737 0.263
vt 0.808 0.372
# Ring 3 (radius 0.5 in UV space)
vt 1.000 0.500
vt 0.962 0.691
vt 0.854 0.854
vt 0.691 0.962
vt 0.500 1.000
vt 0.309 0.962
vt 0.146 0.854
vt 0.038 0.691
vt 0.000 0.500
vt 0.038 0.309
vt 0.146 0.146
vt 0.309 0.038
vt 0.500 0.000
vt 0.691 0.038
vt 0.854 0.146
vt 0.962 0.309

# Normal (all facing +Z)
vn 0.0 0.0 1.0

# Inner ring faces (center to ring 1)
f 1/1/1 2/2/1 3/3/1
f 1/1/1 3/3/1 4/4/1
f 1/1/1 4/4/1 5/5/1
f 1/1/1 5/5/1 6/6/1
f 1/1/1 6/6/1 7/7/1
f 1/1/1 7/7/1 8/8/1
f 1/1/1 8/8/1 9/9/1
f 1/1/1 9/9/1 10/10/1
f 1/1/1 10/10/1 11/11/1
f 1/1/1 11/11/1 12/12/1
f 1/1/1 12/12/1 13/13/1
f 1/1/1 13/13/1 14/14/1
f 1/1/1 14/14/1 15/15/1
f 1/1/1 15/15/1 16/16/1
f 1/1/1 16/16/1 17/17/1
f 1/1/1 17/17/1 2/2/1

# Middle ring faces (ring 1 to ring 2)
f 2/2/1 18/18/1 19/19/1
f 2/2/1 19/19/1 3/3/1
f 3/3/1 19/19/1 20/20/1
f 3/3/1 20/20/1 4/4/1
f 4/4/1 20/20/1 21/21/1
f 4/4/1 21/21/1 5/5/1
f 5/5/1 21/21/1 22/22/1
f 5/5/1 22/22/1 6/6/1
f 6/6/1 22/22/1 23/23/1
f 6/6/1 23/23/1 7/7/1
f 7/7/1 23/23/1 24/24/1
f 7/7/1 24/24/1 8/8/1
f 8/8/1 24/24/1 25/25/1
f 8/8/1 25/25/1 9/9/1
f 9/9/1 25/25/1 26/26/1
f 9/9/1 26/26/1 10/10/1
f 10/10/1 26/26/1 27/27/1
f 10/10/1 27/27/1 11/11/1
f 11/11/1 27/27/1 28/28/1
f 11/11/1 28/28/1 12/12/1
f 12/12/1 28/28/1 29/29/1
f 12/12/1 29/29/1 13/13/1
f 13/13/1 29/29/1 30/30/1
f 13/13/1 30/30/1 14/14/1
f 14/14/1 30/30/1 31/31/1
f 14/14/1 31/31/1 15/15/1
f 15/15/1 31/31/1 32/32/1
f 15/15/1 32/32/1 16/16/1
f 16/16/1 32/32/1 33/33/1
f 16/16/1 33/33/1 17/17/1
f 17/17/1 33/33/1 18/18/1
f 17/17/1 18/18/1 2/2/1

# Outer ring faces (ring 2 to ring 3)
f 18/18/1 34/34/1 35/35/1
f 18/18/1 35/35/1 19/19/1
f 19/19/1 35/35/1 36/36/1
f 19/19/1 36/36/1 20/20/1
f 20/20/1 36/36/1 37/37/1
f 20/20/1 37/37/1 21/21/1
f 21/21/1 37/37/1 38/38/1
f 21/21/1 38/38/1 22/22/1
f 22/22/1 38/38/1 39/39/1
f 22/22/1 39/39/1 23/23/1
f 23/23/1 39/39/1 40/40/1
f 23/23/1 40/40/1 24/24/1
f 24/24/1 40/40/1 41/41/1
f 24/24/1 41/41/1 25/25/1
f 25/25/1 41/41/1 42/42/1
f 25/25/1 42/42/1 26/26/1
f 26/26/1 42/42/1 43/43/1
f 26/26/1 43/43/1 27/27/1
f 27/27/1 43/43/1 44/44/1
f 27/27/1 44/44/1 28/28/1
f 28/28/1 44/44/1 45/45/1
f 28/28/1 45/45/1 29/29/1
f 29/29/1 45/45/1 46/46/1
f 29/29/1 46/46/1 30/30/1
f 30/30/1 46/46/1 47/47/1
f 30/30/1 47/47/1 31/31/1
f 31/31/1 47/47/1 48/48/1
f 31/31/1 48/48/1 32/32/1
f 32/32/1 48/48/1 49/49/1
f 32/32/1 49/49/1 33/33/1
f 33/33/1 49/49/1 34/34/1
f 33/33/1 34/34/1 18/18/1
